<?xml version="1.0" encoding="UTF-8"?>
<svg width="188px" height="115px" viewBox="0 0 188 115" version="1.1" xmlns="http://www.w3.org/2000/svg" xmlns:xlink="http://www.w3.org/1999/xlink">
    <!-- Generator: Sketch 51.2 (57519) - http://www.bohemiancoding.com/sketch -->
    <title>Shape Copy 2</title>
    <desc>Created with Sketch.</desc>
    <defs></defs>
    <g id="Page-1" stroke="none" stroke-width="1" fill="none" fill-rule="evenodd">
        <g id="Sticker" transform="translate(-50.000000, -59.000000)" fill="#37474F">
            <path d="M200.298886,130.998893 C199.432194,130.78222 198.70995,130.565547 198.059931,130.27665 C197.409912,129.987752 196.904341,129.62663 196.470995,129.193284 C196.904341,125.365393 196.470995,122.043073 196.832117,118.287406 C198.276604,103.698086 207.449097,108.320445 215.682674,105.937041 C220.810603,104.492554 225.938532,101.531356 227.238571,95.4645098 C221.605071,88.8920933 215.321552,83.1141448 208.460238,78.2028885 C186.142912,62.3135301 156.964272,55.9577867 130.457933,60.3634725 C134.613263,67.6197953 140.805679,73.1852042 147.989049,76.6138073 C147.989049,76.6138073 140.805679,76.6138073 134.649113,72.0149464 C132.843504,72.73719 129.230119,74.1583246 127.496735,75.0250169 C141.580484,88.5309715 163.608913,90.047683 179.426047,77.9139911 C179.353823,78.0584398 177.98156,80.1529462 176.3204,88.8920933 C172.636957,107.525977 162.019977,106.08149 148.875144,101.386907 C121.574337,91.4921701 106.551671,100.664663 92.9012678,81.8863307 C88.9289282,84.1252858 86.4733,88.3142985 86.4733,92.8644329 C86.4733,97.5590161 89.0733769,101.531356 92.8290434,103.698086 C94.8794922,100.978252 95.7985319,100.204404 99.3743262,100.204404 C93.8411165,103.341562 93.1901652,106.08149 90.8067614,113.665048 C87.9177872,122.837541 89.1456012,132.226707 75.6396466,134.682335 C68.4894353,135.043457 68.633884,139.882489 66.0338071,147.104925 C62.7837111,156.494091 58.4502497,160.249758 50,169.133353 C53.4667691,173.322366 57.0779869,173.827937 60.7614291,172.311225 C68.3449866,169.133353 74.1951594,159.310841 79.6842105,152.955098 C85.8232808,145.877111 100.55705,148.910534 111.6796,141.976995 C119.335382,137.282412 123.091049,130.926669 118.035344,120.16524 C121.28544,123.776458 123.235498,128.326592 123.524395,133.165624 C136.38033,131.504464 153.569727,147.177149 169.242413,149.777226 C167.653477,147.754944 166.353438,145.588213 165.414522,143.349258 C163.608913,139.015797 163.031118,135.043457 163.39224,131.576688 C164.836727,140.171386 173.50365,151.221713 187.44295,152.232854 C190.981944,152.521751 194.882059,152.088405 198.926623,150.860591 C203.765655,149.416104 208.243565,147.538271 213.588167,148.549412 C217.560507,149.271655 221.243949,151.293937 223.555129,154.688482 C227.021898,159.744187 234.605455,160.827552 238,154.616258 C230.344218,134.610111 209.254706,133.310073 200.298886,130.998893 Z" id="Shape-Copy-2"></path>
        </g>
    </g>
</svg>